<svg id="icon_main_media_youtube" xmlns="http://www.w3.org/2000/svg" width="20" height="20" viewBox="0 0 20 20">
  <rect id="矩形_2170" data-name="矩形 2170" width="20" height="20" fill="#fea5a5" opacity="0"/>
  <circle id="椭圆_395" data-name="椭圆 395" cx="8.315" cy="8.315" r="8.315" transform="translate(1.684 1.686)" fill="red"/>
  <path id="路径_3170" data-name="路径 3170" d="M4.674,176.276V173l2.8,1.642Zm6.432-3.9a2.459,2.459,0,0,0-.446-1.121,1.6,1.6,0,0,0-1.124-.478c-1.57-.115-3.925-.115-3.925-.115h0s-2.355,0-3.925.115a1.6,1.6,0,0,0-1.125.478,2.457,2.457,0,0,0-.445,1.122A17.175,17.175,0,0,0,0,174.209v.858A17.208,17.208,0,0,0,.112,176.9a2.456,2.456,0,0,0,.445,1.121,1.9,1.9,0,0,0,1.237.483c.9.087,3.814.114,3.814.114s2.357,0,3.927-.118a1.6,1.6,0,0,0,1.124-.479,2.454,2.454,0,0,0,.446-1.122,17.193,17.193,0,0,0,.112-1.828v-.857a17.208,17.208,0,0,0-.112-1.829Z" transform="translate(4.389 -164.641)" fill="#fff"/>
</svg>
